<svg
  width="15"
  height="16"
  viewBox="0 0 15 16"
  fill="none"
  xmlns="http://www.w3.org/2000/svg"
>
  <g clip-path="url(#clip0)">
    <path
      d="M7.50309 4.40586C5.51559 4.40586 3.91246 6.00898 3.91246 7.99648C3.91246 9.98398 5.51559 11.5871 7.50309 11.5871C9.49059 11.5871 11.0937 9.98398 11.0937 7.99648C11.0937 6.00898 9.49059 4.40586 7.50309 4.40586ZM7.50309 10.3309C6.21871 10.3309 5.16871 9.28398 5.16871 7.99648C5.16871 6.70898 6.21559 5.66211 7.50309 5.66211C8.79059 5.66211 9.83746 6.70898 9.83746 7.99648C9.83746 9.28398 8.78746 10.3309 7.50309 10.3309ZM12.0781 4.25898C12.0781 4.72461 11.7031 5.09648 11.2406 5.09648C10.775 5.09648 10.4031 4.72148 10.4031 4.25898C10.4031 3.79648 10.7781 3.42148 11.2406 3.42148C11.7031 3.42148 12.0781 3.79648 12.0781 4.25898ZM14.4562 5.10898C14.4031 3.98711 14.1468 2.99336 13.325 2.17461C12.5062 1.35586 11.5125 1.09961 10.3906 1.04336C9.23434 0.977734 5.76871 0.977734 4.61246 1.04336C3.49371 1.09648 2.49996 1.35273 1.67809 2.17148C0.856213 2.99023 0.603088 3.98398 0.546838 5.10586C0.481213 6.26211 0.481213 9.72773 0.546838 10.884C0.599963 12.0059 0.856213 12.9996 1.67809 13.8184C2.49996 14.6371 3.49059 14.8934 4.61246 14.9496C5.76871 15.0152 9.23434 15.0152 10.3906 14.9496C11.5125 14.8965 12.5062 14.6402 13.325 13.8184C14.1437 12.9996 14.4 12.0059 14.4562 10.884C14.5218 9.72773 14.5218 6.26523 14.4562 5.10898ZM12.9625 12.1246C12.7187 12.7371 12.2468 13.209 11.6312 13.4559C10.7093 13.8215 8.52184 13.7371 7.50309 13.7371C6.48434 13.7371 4.29371 13.8184 3.37496 13.4559C2.76246 13.2121 2.29059 12.7402 2.04371 12.1246C1.67809 11.2027 1.76246 9.01523 1.76246 7.99648C1.76246 6.97773 1.68121 4.78711 2.04371 3.86836C2.28746 3.25586 2.75934 2.78398 3.37496 2.53711C4.29684 2.17148 6.48434 2.25586 7.50309 2.25586C8.52184 2.25586 10.7125 2.17461 11.6312 2.53711C12.2437 2.78086 12.7156 3.25273 12.9625 3.86836C13.3281 4.79023 13.2437 6.97773 13.2437 7.99648C13.2437 9.01523 13.3281 11.2059 12.9625 12.1246Z"
      fill="white"
    />
  </g>
  <defs>
    <clipPath id="clip0">
      <rect width="14" height="16" fill="white" transform="translate(0.5)" />
    </clipPath>
  </defs>
</svg>
