<svg
  width="89"
  height="32"
  viewBox="0 0 89 32"
  fill="none"
  xmlns="http://www.w3.org/2000/svg"
>
  <g clip-path="url(#clip0)">
    <path
      fill-rule="evenodd"
      clip-rule="evenodd"
      d="M44.0074 17.6343H40.1403C40.1264 17.6344 40.1125 17.6313 40.1 17.6251C40.0874 17.6189 40.0764 17.6099 40.0679 17.5988C40.0595 17.5878 40.0538 17.575 40.0513 17.5614C40.0487 17.5478 40.0493 17.5338 40.0532 17.5205L41.9859 10.8548C41.991 10.8356 42.0023 10.8185 42.0181 10.8063C42.0338 10.7942 42.0532 10.7876 42.0731 10.7876C42.093 10.7876 42.1124 10.7942 42.1282 10.8063C42.1439 10.8185 42.1552 10.8356 42.1603 10.8548L44.0931 17.5205C44.0969 17.5338 44.0975 17.5478 44.095 17.5614C44.0924 17.575 44.0867 17.5878 44.0783 17.5988C44.0699 17.6097 44.0592 17.6186 44.0469 17.6248C44.0346 17.6309 44.0211 17.6342 44.0074 17.6343ZM45.8071 23.4075H48.3191L44.4891 10.1958C44.3337 9.676 44.0147 9.22021 43.5796 8.89616C43.1444 8.5721 42.6164 8.39707 42.0739 8.39707C41.5313 8.39707 41.0033 8.5721 40.5681 8.89616C40.133 9.22021 39.8141 9.676 39.6586 10.1958L35.8271 23.4089H38.3465L39.4532 19.5833C39.4587 19.5645 39.4702 19.5479 39.4859 19.5362C39.5017 19.5244 39.5208 19.5182 39.5404 19.5183H44.6029C44.6225 19.5182 44.6416 19.5244 44.6574 19.5362C44.6731 19.5479 44.6846 19.5645 44.69 19.5833L45.8071 23.4075ZM59.966 15.8197H61.4436C61.4675 15.8197 61.4905 15.8292 61.5074 15.8461C61.5243 15.863 61.5338 15.886 61.5338 15.9099V21.1215C61.5385 21.7837 61.8055 22.4171 62.2764 22.8827C62.7473 23.3483 63.3836 23.6082 64.0458 23.6055C64.546 23.6064 65.0438 23.5347 65.5234 23.3927V21.6801C65.2456 21.7037 64.9324 21.72 64.7004 21.72C64.5044 21.72 64.3165 21.6421 64.1779 21.5036C64.0394 21.365 63.9616 21.1771 63.9616 20.9812V15.9084C63.9616 15.8845 63.9711 15.8616 63.988 15.8447C64.0049 15.8277 64.0278 15.8183 64.0517 15.8183H65.5293V13.9357H64.0517C64.0278 13.9357 64.0049 13.9262 63.988 13.9093C63.9711 13.8924 63.9616 13.8695 63.9616 13.8456V10.7174H61.5249V13.8456C61.5249 13.8695 61.5154 13.8924 61.4985 13.9093C61.4816 13.9262 61.4587 13.9357 61.4348 13.9357H59.9571L59.966 15.8197ZM73.9342 23.4075H76.3502V16.8659C76.3435 16.0326 76.0068 15.2358 75.4138 14.6503C74.8208 14.0648 74.0199 13.7382 73.1865 13.7422C72.1872 13.7611 71.2138 14.0629 70.379 14.6125C70.3649 14.6208 70.3488 14.6252 70.3324 14.6252C70.3161 14.6252 70.3 14.6208 70.2859 14.6125C70.2717 14.6048 70.2599 14.5935 70.2516 14.5798C70.2433 14.566 70.2388 14.5503 70.2386 14.5342V8.59106H67.8108V23.4075H70.2327V16.3251C70.2326 16.3086 70.2371 16.2923 70.2457 16.2782C70.2543 16.2641 70.2667 16.2527 70.2815 16.2453C70.7366 16.0133 71.635 15.6232 72.5349 15.6232C72.9034 15.6219 73.2574 15.767 73.519 16.0266C73.6476 16.1526 73.7499 16.303 73.8199 16.4689C73.8899 16.6348 73.9262 16.8129 73.9268 16.993V23.4016L73.9342 23.4075ZM49.6742 13.9357V20.4773C49.6796 21.3114 50.0158 22.1093 50.609 22.6957C51.2021 23.2822 52.0037 23.6094 52.8378 23.6055C53.9561 23.5862 55.0395 23.2127 55.932 22.5386C55.9436 22.5297 55.9572 22.5237 55.9716 22.5212C55.986 22.5186 56.0008 22.5195 56.0147 22.5238C56.0286 22.5282 56.0413 22.5358 56.0516 22.5461C56.0619 22.5564 56.0695 22.569 56.0739 22.5829L56.3295 23.4089H58.2194V13.9357H55.7916V21.0196C55.7916 21.0361 55.787 21.0522 55.7784 21.0663C55.7698 21.0804 55.7575 21.0918 55.7429 21.0994C55.2877 21.3314 54.3893 21.7215 53.4894 21.7215C53.1226 21.723 52.7701 21.5791 52.5092 21.3213C52.2483 21.0634 52.1002 20.7126 52.0975 20.3458V13.9357H49.6742ZM83.4296 21.7215C82.6908 21.7215 82.0997 21.3048 81.6313 20.4477C81.0683 19.4134 80.758 17.8338 80.758 16.0015C80.758 14.1692 81.0683 12.5896 81.6313 11.5552C82.0968 10.6982 82.6849 10.2815 83.4296 10.2815C84.1743 10.2815 84.7595 10.6982 85.2279 11.5552C85.7909 12.5896 86.1012 14.1692 86.1012 16.0015C86.1012 17.8338 85.7909 19.4134 85.2279 20.4477C84.7624 21.3033 84.1743 21.7215 83.4296 21.7215ZM83.4296 8.39601C81.8722 8.39601 80.5541 9.12154 79.6202 10.4943C78.6863 11.867 78.2002 13.7628 78.2002 16.0015C78.2002 18.2401 78.6908 20.1389 79.6202 21.5087C80.5497 22.8785 81.8722 23.6069 83.4296 23.6069C84.987 23.6069 86.3051 22.8814 87.239 21.5087C88.1729 20.1359 88.659 18.2372 88.659 16C88.659 13.7628 88.1684 11.8626 87.239 10.4928C86.3095 9.12302 84.987 8.39454 83.4296 8.39454V8.39601Z"
      fill="white"
    />
    <path
      d="M27.9276 9.88844L24.7092 0H14.311L17.5249 9.88844H27.9276ZM14.311 0H3.91427L0.701854 9.88844H11.0986L14.311 0ZM0.701854 9.88844C-0.232044 12.7626 -0.23208 15.8587 0.701751 18.7329C1.63558 21.6072 3.45534 24.112 5.90023 25.8884L9.11264 16L0.701854 9.88844ZM27.9217 9.88844L19.505 16L22.7174 25.8884C25.1643 24.1136 26.9865 21.6094 27.9225 18.7351C28.8584 15.8608 28.8602 12.7639 27.9276 9.88844H27.9217ZM5.90023 25.8884L14.3125 32L22.7233 25.8884L14.311 19.7769L5.90023 25.8884Z"
      fill="white"
    />
  </g>
  <defs>
    <clipPath id="clip0">
      <rect width="88.659" height="32" fill="white" />
    </clipPath>
  </defs>
</svg>
