<svg
  width="16"
  height="16"
  viewBox="0 0 16 16"
  fill="none"
  xmlns="http://www.w3.org/2000/svg"
>
  <path
    d="M4.21693 8.5216H5.97078V15.7419C5.97078 15.8845 6.08629 16 6.22885 16H9.20258C9.34513 16 9.46064 15.8845 9.46064 15.7419V8.55561H11.4768C11.6079 8.55561 11.7182 8.45724 11.7332 8.32702L12.0394 5.66885C12.0478 5.59572 12.0247 5.52248 11.9757 5.46761C11.9268 5.4127 11.8567 5.38126 11.7831 5.38126H9.46075V3.71499C9.46075 3.2127 9.7312 2.95799 10.2647 2.95799C10.3407 2.95799 11.7831 2.95799 11.7831 2.95799C11.9257 2.95799 12.0412 2.84243 12.0412 2.69992V0.259974C12.0412 0.117419 11.9257 0.00190968 11.7831 0.00190968H9.69048C9.67571 0.0011871 9.64294 0 9.59463 0C9.23153 0 7.96944 0.0712773 6.97249 0.988439C5.86787 2.0048 6.02142 3.22173 6.05811 3.43272V5.38121H4.21693C4.07437 5.38121 3.95886 5.49672 3.95886 5.63928V8.26348C3.95886 8.40604 4.07437 8.5216 4.21693 8.5216Z"
    fill="white"
  />
</svg>
