<svg
  width="16"
  height="16"
  viewBox="0 0 16 16"
  fill="none"
  xmlns="http://www.w3.org/2000/svg"
>
  <g clip-path="url(#clip0)">
    <path
      fill-rule="evenodd"
      clip-rule="evenodd"
      d="M7.84898 0.695068C3.7717 0.695068 0.465088 4.00123 0.465088 8.07987C0.465088 11.3425 2.58079 14.1101 5.51522 15.0866C5.88468 15.1546 6.01933 14.9266 6.01933 14.7307C6.01933 14.5557 6.01298 14.0911 6.00935 13.475C3.9553 13.9211 3.52191 12.4849 3.52191 12.4849C3.18599 11.6317 2.70183 11.4046 2.70183 11.4046C2.03135 10.9467 2.75261 10.9558 2.75261 10.9558C3.49381 11.0079 3.88367 11.717 3.88367 11.717C4.54237 12.8453 5.61223 12.5194 6.03292 12.3303C6.10002 11.8534 6.29087 11.5279 6.50167 11.3434C4.86197 11.1571 3.13794 10.5233 3.13794 7.69363C3.13794 6.8876 3.42581 6.228 3.89818 5.71211C3.82202 5.52534 3.56861 4.77416 3.97071 3.75779C3.97071 3.75779 4.59042 3.55923 6.00119 4.51486C6.59007 4.35075 7.22202 4.26915 7.84989 4.26598C8.4773 4.26915 9.10879 4.35075 9.69858 4.51486C11.1084 3.55923 11.7272 3.75779 11.7272 3.75779C12.1303 4.77416 11.8768 5.52534 11.8011 5.71211C12.2744 6.228 12.56 6.8876 12.56 7.69363C12.56 10.5306 10.8333 11.1548 9.18858 11.3375C9.45332 11.5655 9.68951 12.0162 9.68951 12.7052C9.68951 13.6921 9.68045 14.4886 9.68045 14.7307C9.68045 14.9284 9.81372 15.1582 10.1882 15.0861C13.1203 14.1074 15.2342 11.3416 15.2342 8.07987C15.2342 4.00123 11.9276 0.695068 7.84898 0.695068Z"
      fill="white"
    />
  </g>
  <defs>
    <clipPath id="clip0">
      <rect
        width="16"
        height="15.1111"
        fill="white"
        transform="translate(0 0.444336)"
      />
    </clipPath>
  </defs>
</svg>
