<svg
  width="15"
  height="16"
  viewBox="0 0 15 16"
  fill="none"
  xmlns="http://www.w3.org/2000/svg"
>
  <g clip-path="url(#clip0)">
    <path
      d="M3.63375 14.0002H0.73125V4.6533H3.63375V14.0002ZM2.18094 3.3783C1.25281 3.3783 0.5 2.60955 0.5 1.68143C0.5 1.23561 0.677098 0.80806 0.992335 0.492823C1.30757 0.177587 1.73513 0.000488281 2.18094 0.000488281C2.62675 0.000488281 3.0543 0.177587 3.36954 0.492823C3.68478 0.80806 3.86188 1.23561 3.86188 1.68143C3.86188 2.60955 3.10875 3.3783 2.18094 3.3783ZM14.4969 14.0002H11.6006V9.45018C11.6006 8.3658 11.5787 6.97518 10.0916 6.97518C8.5825 6.97518 8.35125 8.1533 8.35125 9.37205V14.0002H5.45188V4.6533H8.23562V5.9283H8.27625C8.66375 5.19393 9.61031 4.41893 11.0225 4.41893C13.96 4.41893 14.5 6.3533 14.5 8.8658V14.0002H14.4969Z"
      fill="white"
    />
  </g>
  <defs>
    <clipPath id="clip0">
      <rect width="14" height="16" fill="white" transform="translate(0.5)" />
    </clipPath>
  </defs>
</svg>
