<svg viewBox="0 0 45 48" fill="none" xmlns="http://www.w3.org/2000/svg">
  <path
    d="M24.9234 1.33826L24.925 1.33856C30.5557 2.36244 34.1877 5.45074 36.851 9.61843C39.5451 13.8344 41.2184 19.1058 42.9039 24.4534C43.23 25.5546 43.5588 26.6325 43.9217 27.7139C43.9517 27.8034 43.9718 27.8996 43.9975 28.0476C43.9603 28.5584 43.518 28.9834 42.9811 28.9834H38.3245H37.3245V29.9834V34.9602C37.2945 38.2955 34.611 40.9837 31.2583 40.9837H30.2489H29.2489V41.9837V46.9933C29.2484 46.9939 29.2478 46.9946 29.247 46.9954C29.2445 46.9979 29.242 46.9993 29.2409 46.9998C29.2404 47 29.2402 47 29.2403 47C29.2405 46.9999 29.2403 47 29.2394 47H9.0828C9.08194 47 9.08174 46.9999 9.08189 47C9.08198 47 9.08182 47 9.08136 46.9998C9.08074 46.9995 9.07979 46.999 9.07866 46.9982C9.07762 46.9975 9.07643 46.9966 9.07521 46.9954C9.07442 46.9946 9.0738 46.9939 9.07334 46.9933V36.7113V36.2145L8.67737 35.9144C3.31819 31.8526 0.440812 25.3325 1.09066 18.6623L1.09115 18.657C1.58602 13.2805 4.33771 8.3984 8.69692 5.20457L8.69697 5.20465L8.7076 5.19663C13.339 1.70771 19.2104 0.289645 24.9234 1.33826Z"
    stroke="#57585A"
    stroke-width="2"
  />
</svg>
