<svg
  width="16"
  height="16"
  viewBox="0 0 16 16"
  fill="none"
  xmlns="http://www.w3.org/2000/svg"
>
  <path
    d="M11.8472 10.973C11.3513 10.973 10.8893 11.1172 10.4998 11.3651L6.56867 8.6205C6.63178 8.40019 6.66628 8.16781 6.66628 7.92726C6.66628 7.68668 6.63178 7.4543 6.56867 7.23402L10.3937 4.56353C10.8041 4.85505 11.3054 5.02704 11.8471 5.02704C13.2353 5.02704 14.3606 3.90169 14.3606 2.51354C14.3606 1.12538 13.2353 0 11.8472 0C10.459 0 9.33367 1.12535 9.33367 2.5135C9.33367 2.69683 9.35384 2.87538 9.3911 3.04755L5.46896 5.78586C5.08611 5.55006 4.63544 5.41376 4.15278 5.41376C2.76463 5.41376 1.63928 6.53911 1.63928 7.92726C1.63928 9.31541 2.7646 10.4408 4.15278 10.4408C4.63541 10.4408 5.08611 10.3045 5.46896 10.0687L9.42138 12.8281C9.36455 13.038 9.33367 13.2586 9.33367 13.4865C9.33367 14.8747 10.459 16 11.8472 16C13.2353 16 14.3607 14.8747 14.3607 13.4865C14.3607 12.0983 13.2353 10.973 11.8472 10.973Z"
    fill="white"
  />
</svg>
