<svg width="51" height="82" viewBox="0 0 51 82" fill="none" xmlns="http://www.w3.org/2000/svg">
<path fill-rule="evenodd" clip-rule="evenodd" d="M23.0665 4.46427C26.3442 8.59213 31.399 11.2452 37.0744 11.2669C36.3172 2.87665 32.668 0 26.1887 0C24.1388 0 22.3724 0.295641 20.8934 0.971735C20.8935 0.971885 20.8936 0.972034 20.8937 0.972183C17.8958 2.34294 16.0793 5.27715 15.478 10.4813C18.5263 9.20092 21.1471 7.10401 23.0665 4.46427Z" fill="black"/>
<path d="M10.8156 64.0674H38.6887C38.6887 64.0674 45.2997 64.1583 45.2997 56.5226C45.2997 46.2508 38.6887 35.2518 38.6887 35.2518L30.1124 33.4338L29.3977 30.3432C31.2738 29.0705 33.1499 26.7071 34.0432 22.4348C35.0259 22.9802 36.1873 22.6166 36.8127 19.3442C37.3487 16.1626 36.0086 14.5264 34.7579 16.2535C35.0259 5.34543 31.7205 1.80029 24.9309 1.80029C18.2306 1.80029 14.9251 5.34543 15.1931 16.1626C13.8531 14.4355 12.6024 16.0717 13.1384 19.2533C13.6744 22.6166 14.8358 22.9802 15.9078 22.3439C16.8012 26.6162 18.6773 28.8887 20.5534 30.1614L19.8387 33.3429L11.441 35.1609C11.441 35.1609 4.83008 46.1599 4.83008 56.4317C4.74074 64.1583 10.8156 64.0674 10.8156 64.0674Z" fill="black"/>
<path d="M39.6726 66.7032C39.6726 67.7031 39.0473 68.5213 38.2432 68.5213H11.8889C11.0848 68.5213 10.4595 67.7031 10.4595 66.7032V45.2506C10.4595 44.2507 11.0848 43.4326 11.8889 43.4326H38.2432C39.0473 43.4326 39.6726 44.2507 39.6726 45.2506V66.7032Z" fill="white"/>
<path d="M47.2652 70.9753C46.6398 70.8844 46.1038 71.0662 45.5678 71.3389C45.5678 71.3389 45.4785 71.4298 45.2998 71.5207L45.2104 71.6116C44.9424 71.7934 44.4957 72.0661 43.8704 72.3388C47.3545 69.6118 50.124 65.7031 50.124 62.4307C50.124 62.2489 50.124 62.0671 50.0346 61.8853C50.0346 61.7944 50.0346 61.7944 50.0346 61.7035C49.9453 61.3399 49.856 61.0671 49.7666 60.7035C48.7839 58.6128 46.3718 57.7038 44.3171 58.7037L25.0203 67.9756L5.81289 58.7037C3.75814 57.7038 1.34605 58.6128 0.363345 60.7035C0.184671 61.0671 0.0953341 61.3399 0.0953341 61.7035C0.0953341 61.7944 0.0953341 61.7944 0.0953341 61.8853C0.00599721 62.0671 0.0059972 62.2489 0.0059972 62.4307C-0.0833396 65.7031 2.77544 69.6118 6.25958 72.3388C5.72356 72.0661 5.18753 71.7934 4.91952 71.6116L4.83019 71.5207C4.56218 71.4298 4.47284 71.3389 4.47284 71.3389C3.93682 71.0662 3.31146 70.8844 2.77544 70.9753C0.810029 71.248 -0.35135 73.8842 0.0953341 76.8839C0.542018 79.7927 2.50743 81.9743 4.3835 81.6107C12.6918 81.9743 17.0693 80.9744 17.0693 80.9744C19.8388 80.1563 22.5189 79.2473 24.931 78.3383C27.4324 79.2473 30.0232 80.1563 32.7926 80.9744C32.7926 80.9744 37.1701 81.9743 45.4785 81.6107C47.4439 81.8834 49.3199 79.7927 49.7666 76.8839C50.392 73.8842 49.2306 71.248 47.2652 70.9753Z" fill="black"/>
<path d="M29.4901 53.4315H26.0953L25.0232 50.1591L23.9512 53.4315H20.5564L23.3258 55.5222L22.2538 58.7946L25.0232 56.7039L27.7927 58.7946L26.7206 55.5222L29.4901 53.4315Z" fill="black"/>
</svg>
